<svg width="512" height="512" viewBox="0 0 512 512" fill="none" xmlns="http://www.w3.org/2000/svg">
<rect width="512" height="512" fill="none"/>
<path d="M235.671 201.092L111.812 108L213.71 145.811L235.671 201.092Z" fill="#E4761B"/>
<path d="M321.882 372.427L355.137 321.763L413.49 322.886L393.035 391.894L321.882 372.427Z" fill="#E4761B"/>
<path d="M118.965 391.894L98.6353 322.886L156.863 321.763L190.118 372.427L118.965 391.894Z" fill="#E4761B"/>
<path d="M275.2 200.219L400.063 108L298.29 145.811L275.2 200.219Z" fill="#E4761B"/>
<path d="M235.671 201.092L111.812 108L213.71 145.811L235.671 201.092Z" stroke="#E4761B" stroke-linecap="round" stroke-linejoin="round"/>
<path d="M321.882 372.427L355.137 321.763L413.49 322.886L393.035 391.894L321.882 372.427Z" stroke="#E4761B" stroke-linecap="round" stroke-linejoin="round"/>
<path d="M118.965 391.894L98.6353 322.886L156.863 321.763L190.118 372.427L118.965 391.894Z" stroke="#E4761B" stroke-linecap="round" stroke-linejoin="round"/>
<path d="M275.2 200.219L400.063 108L298.29 145.811L275.2 200.219Z" stroke="#E4761B" stroke-linecap="round" stroke-linejoin="round"/>
<path d="M186.102 236.158L166.275 265.982L236.926 269.102L234.416 193.605L186.102 236.158ZM325.773 236.158L276.831 192.731L275.2 269.102L345.726 265.982L325.773 236.158ZM190.118 372.427L232.533 351.837L195.89 323.385L190.118 372.427ZM279.341 351.837L321.882 372.427L315.984 323.385L279.341 351.837Z" fill="#E4761B" stroke="#E4761B" stroke-linecap="round" stroke-linejoin="round"/>
<path d="M321.882 372.427L279.341 351.837L282.729 379.415L282.353 391.02L321.882 372.427ZM190.118 372.427L229.647 391.02L229.396 379.415L232.533 351.837L190.118 372.427Z" fill="#D7C1B3" stroke="#D7C1B3" stroke-linecap="round" stroke-linejoin="round"/>
<path d="M230.275 305.166L194.886 294.808L219.859 283.453L230.275 305.166ZM281.6 305.166L292.016 283.453L317.114 294.808L281.6 305.166Z" fill="#233447" stroke="#233447" stroke-linecap="round" stroke-linejoin="round"/>
<path d="M190.118 372.427L196.141 321.763L156.863 322.886L190.118 372.427ZM315.859 321.763L321.882 372.427L355.137 322.886L315.859 321.763ZM345.726 265.982L275.2 269.102L281.726 305.166L292.141 283.453L317.239 294.808L345.726 265.982ZM194.886 294.808L219.984 283.453L230.275 305.166L236.926 269.102L166.275 265.982L194.886 294.808Z" fill="#CD6116" stroke="#CD6116" stroke-linecap="round" stroke-linejoin="round"/>
<path d="M166.275 265.982L195.89 323.385L194.886 294.808L166.275 265.982ZM317.239 294.808L315.984 323.385L345.726 265.982L317.239 294.808ZM236.926 269.102L230.275 305.166L238.557 347.719L240.439 291.689L236.926 269.102ZM275.2 269.102L271.812 291.564L273.318 347.719L281.726 305.166L275.2 269.102Z" fill="#E4751F" stroke="#E4751F" stroke-linecap="round" stroke-linejoin="round"/>
<path d="M281.726 305.166L273.318 347.719L279.341 351.837L315.984 323.385L317.239 294.808L281.726 305.166ZM194.886 294.808L195.89 323.385L232.533 351.837L238.557 347.719L230.275 305.166L194.886 294.808Z" fill="#F6851B" stroke="#F6851B" stroke-linecap="round" stroke-linejoin="round"/>
<path d="M282.353 391.02L282.729 379.415L279.592 376.67H232.282L229.396 379.415L229.647 391.02L190.118 372.427L203.922 383.658L231.906 403H279.969L308.078 383.658L321.882 372.427L282.353 391.02Z" fill="#C0AD9E" stroke="#C0AD9E" stroke-linecap="round" stroke-linejoin="round"/>
<path d="M279.341 351.837L273.318 347.719H238.557L232.533 351.837L229.396 379.415L232.282 376.67H279.592L282.729 379.415L279.341 351.837Z" fill="#161616" stroke="#161616" stroke-linecap="round" stroke-linejoin="round"/>
<path d="M405.333 206.209L416 155.295L400.063 108L279.341 197.099L325.773 236.158L391.404 255.25L405.961 238.404L399.686 233.912L409.725 224.802L401.945 218.812L411.984 211.2L405.333 206.209ZM96 155.295L106.667 206.209L99.8902 211.2L109.929 218.812L102.275 224.802L112.314 233.912L106.039 238.404L120.471 255.25L186.102 236.158L232.533 197.099L111.812 108L96 155.295Z" fill="#763D16" stroke="#763D16" stroke-linecap="round" stroke-linejoin="round"/>
<path d="M391.404 255.25L325.773 236.158L345.726 265.982L315.984 323.385L355.137 322.886H413.49L391.404 255.25ZM186.102 236.158L120.471 255.25L98.6353 322.886H156.863L195.89 323.385L166.275 265.982L186.102 236.158ZM275.2 269.102L279.341 197.099L298.416 145.811H213.71L232.533 197.099L236.926 269.102L238.431 291.813L238.557 347.719H273.318L273.569 291.813L275.2 269.102Z" fill="#F6851B" stroke="#F6851B" stroke-linecap="round" stroke-linejoin="round"/>
</svg>
